<svg id="Layer_2" data-name="Layer 2" xmlns="http://www.w3.org/2000/svg" viewBox="0 0 1662.77 1920"><defs><style>.cls-1{fill:#8d95e8;}.cls-2,.cls-4{fill:none;stroke:#4f548c;}.cls-2,.cls-3,.cls-4{stroke-miterlimit:10;}.cls-2{stroke-width:200px;}.cls-3{fill:#4f548c;stroke:#8d95e8;stroke-width:50px;}.cls-4{stroke-width:175px;}</style></defs><g id="Layer_5" data-name="Layer 5"><polygon class="cls-1" points="831.38 0 915.38 814.51 1662.77 480 999.38 960 1662.77 1440 915.38 1105.49 831.38 1920 747.38 1105.49 0 1440 663.38 960 0 480 747.38 814.51 831.38 0"/></g><polygon class="cls-2" points="1561 1381.24 831.38 1802.48 101.77 1381.24 101.77 538.76 831.38 117.52 1561 538.76 1561 1381.24"/><polygon class="cls-3" points="1020.78 1065.42 831.38 1174.77 641.99 1065.42 641.99 846.73 831.38 737.38 1020.78 846.73 1020.78 1065.42"/><polygon class="cls-4" points="1226.6 1188.18 831.38 1416.36 436.17 1188.18 436.17 731.82 831.38 503.64 1226.6 731.82 1226.6 1188.18"/><line class="cls-4" x1="1318.09" y1="828.41" x2="1318.09" y2="828.41"/></svg>