<?xml version="1.0" encoding="UTF-8" standalone="no"?>
<svg
   id="Layer_2"
   data-name="Layer 2"
   viewBox="0 0 1766.06 1645.77"
   version="1.1"
   sodipodi:docname="logo.svg"
   inkscape:version="1.1.2 (0a00cf5339, 2022-02-04)"
   inkscape:export-filename="/home/angelo/Documents/git/me/static/img/favicon.ico"
   inkscape:export-xdpi="6.9414315"
   inkscape:export-ydpi="6.9414315"
   xmlns:inkscape="http://www.inkscape.org/namespaces/inkscape"
   xmlns:sodipodi="http://sodipodi.sourceforge.net/DTD/sodipodi-0.dtd"
   xmlns="http://www.w3.org/2000/svg"
   xmlns:svg="http://www.w3.org/2000/svg">
  <sodipodi:namedview
     id="namedview11"
     pagecolor="#ffffff"
     bordercolor="#666666"
     borderopacity="1.0"
     inkscape:pageshadow="2"
     inkscape:pageopacity="0.0"
     inkscape:pagecheckerboard="0"
     showgrid="false"
     inkscape:zoom="0.2819349"
     inkscape:cx="883.18262"
     inkscape:cy="821.11155"
     inkscape:window-width="1920"
     inkscape:window-height="1014"
     inkscape:window-x="0"
     inkscape:window-y="0"
     inkscape:window-maximized="1"
     inkscape:current-layer="Layer_2" />
  <defs
     id="defs4">
    <style
       id="style2">.cls-1{fill:#9e1c46;}</style>
  </defs>
  <path
     class="cls-1"
     d="M840.23,358.85V1759.48H573.92V358.85H77V137.12H1340.53V358.85Z"
     transform="translate(-76.97 -137.12)"
     id="path6"
     style="fill:#216778" />
  <path
     class="cls-1"
     d="M1340.5,553.85H1794V753.3H1340.5v576.07q0,66.87,16.16,112t45.14,70.77q29,26.75,69.08,37.87t88,11.14q34.52,0,71.29-3.34t71.33-8.91q33.42-4.45,63-10.58t49.58-10.59l29,183.86q-29,17.84-69.64,30.64a770.6,770.6,0,0,1-87.47,21.72q-46.8,8.91-97.5,13.94t-100.83,5q-91.38,0-167.7-25.08T1189,1679.24q-54.62-52.35-85.25-134.81t-30.64-198.34V753.3H781.16V553.85h291.92V259.68H1340.5Z"
     transform="translate(-76.97 -137.12)"
     id="path8"
     style="fill:#216778" />
</svg>
