<svg xmlns="http://www.w3.org/2000/svg" viewBox="0 0 1659.22 1915.91"><defs><style>.cls-1{fill:#ffdfae;}.cls-2,.cls-3{fill:none;stroke:#ffdfae;stroke-miterlimit:10;}.cls-2{stroke-width:200px;}.cls-3{stroke-width:175px;}</style></defs><g id="Layer_3" data-name="Layer 3"><polygon class="cls-1" points="829.61 66.17 852.99 917.46 1601.92 512.06 876.37 957.95 1601.92 1403.85 852.99 998.45 829.61 1849.74 806.23 998.45 57.3 1403.85 782.85 957.95 57.3 512.06 806.23 917.46 829.61 66.17"/><polygon class="cls-1" points="829.61 2.95 877.36 875.25 1656.67 480.45 925.11 957.95 1656.67 1435.45 877.36 1040.66 829.61 1912.95 781.86 1040.66 2.56 1435.45 734.11 957.95 2.56 480.45 781.86 875.25 829.61 2.95"/></g><g id="Layer_2" data-name="Layer 2"><polygon class="cls-2" points="1559.22 1379.19 829.61 1800.44 100 1379.2 100 536.71 829.61 115.47 1559.22 536.71 1559.22 1379.19"/><polygon class="cls-1" points="1019.01 1063.38 829.61 1172.72 640.22 1063.38 640.22 844.68 829.61 735.34 1019.01 844.68 1019.01 1063.38"/><polygon class="cls-3" points="1245.45 1198.04 829.61 1438.13 413.77 1198.04 413.77 717.87 829.61 477.78 1245.45 717.87 1245.45 1198.04"/></g></svg>